<svg width="20" height="20" viewBox="0 0 20 20" fill="none" xmlns="http://www.w3.org/2000/svg">
<g id="settings_account_box">
<mask id="mask0_4273_19242" style="mask-type:alpha" maskUnits="userSpaceOnUse" x="0" y="0" width="20" height="20">
<rect id="Bounding box" width="20" height="20" fill="#D9D9D9"/>
</mask>
<g mask="url(#mask0_4273_19242)">
<path id="settings_account_box_2" d="M4.68717 15.8333C4.29829 15.8333 3.97551 15.705 3.71884 15.4483C3.46162 15.1911 3.33301 14.8681 3.33301 14.4792V3.85417C3.33301 3.46528 3.46162 3.14222 3.71884 2.885C3.97551 2.62833 4.29829 2.5 4.68717 2.5H15.3122C15.7011 2.5 16.0241 2.62833 16.2813 2.885C16.538 3.14222 16.6663 3.46528 16.6663 3.85417V8.54167C16.5275 8.48611 16.3922 8.44083 16.2605 8.40583C16.1283 8.37139 15.9858 8.33333 15.833 8.29167V3.85417C15.833 3.71528 15.7808 3.59389 15.6763 3.49C15.5725 3.38556 15.4511 3.33333 15.3122 3.33333H4.68717C4.54829 3.33333 4.4269 3.38556 4.32301 3.49C4.21856 3.59389 4.16634 3.71528 4.16634 3.85417V14.3542C4.87467 13.6736 5.68384 13.125 6.59384 12.7083C7.50329 12.2917 8.49273 12.0556 9.56217 12C9.52051 12.125 9.48579 12.2603 9.45801 12.4058C9.43023 12.5519 9.41634 12.7014 9.41634 12.8542C8.5969 12.9236 7.80523 13.1181 7.04134 13.4375C6.27745 13.7569 5.56217 14.2222 4.89551 14.8333V15H9.62467C9.66634 15.1528 9.71856 15.295 9.78134 15.4267C9.84356 15.5589 9.9094 15.6944 9.97884 15.8333H4.68717ZM9.99967 10.0625C10.1247 10.0625 10.2427 10.0519 10.3538 10.0308C10.465 10.0103 10.5691 9.98611 10.6663 9.95833C10.8747 9.70833 11.1038 9.48611 11.3538 9.29167C11.6038 9.09722 11.8677 8.93056 12.1455 8.79167C12.2566 8.61111 12.3433 8.41667 12.4055 8.20833C12.4683 8 12.4997 7.78472 12.4997 7.5625C12.4997 6.86806 12.2566 6.27778 11.7705 5.79167C11.2844 5.30556 10.6941 5.0625 9.99967 5.0625C9.30523 5.0625 8.71495 5.30556 8.22884 5.79167C7.74273 6.27778 7.49967 6.86806 7.49967 7.5625C7.49967 8.25694 7.74273 8.84722 8.22884 9.33333C8.71495 9.81944 9.30523 10.0625 9.99967 10.0625ZM9.99967 9.22917C9.54134 9.22917 9.14912 9.06583 8.82301 8.73917C8.49634 8.41306 8.33301 8.02083 8.33301 7.5625C8.33301 7.10417 8.49634 6.71167 8.82301 6.385C9.14912 6.05889 9.54134 5.89583 9.99967 5.89583C10.458 5.89583 10.8505 6.05889 11.1772 6.385C11.5033 6.71167 11.6663 7.10417 11.6663 7.5625C11.6663 8.02083 11.5033 8.41306 11.1772 8.73917C10.8505 9.06583 10.458 9.22917 9.99967 9.22917ZM14.1663 16.625L14.083 15.9167C13.7636 15.8472 13.4997 15.75 13.2913 15.625C13.083 15.5 12.8886 15.3472 12.708 15.1667L12.0413 15.4583L11.5622 14.75L12.1663 14.25C12.0552 13.9583 11.9997 13.6736 11.9997 13.3958C11.9997 13.1181 12.0552 12.8333 12.1663 12.5417L11.5622 12.0625L12.0413 11.3333L12.708 11.6458C12.8886 11.4514 13.083 11.2917 13.2913 11.1667C13.4997 11.0417 13.7636 10.9444 14.083 10.875L14.1663 10.1667H14.9997L15.083 10.875C15.4025 10.9444 15.6663 11.0417 15.8747 11.1667C16.083 11.2917 16.2775 11.4514 16.458 11.6458L17.1247 11.3333L17.6038 12.0625L16.9997 12.5417C17.1108 12.8333 17.1663 13.1181 17.1663 13.3958C17.1663 13.6736 17.1108 13.9583 16.9997 14.25L17.6038 14.75L17.1247 15.4583L16.458 15.1667C16.2775 15.3472 16.083 15.5 15.8747 15.625C15.6663 15.75 15.4025 15.8472 15.083 15.9167L14.9997 16.625H14.1663ZM14.583 15.1875C15.0691 15.1875 15.4894 15.0103 15.8438 14.6558C16.1977 14.3019 16.3747 13.8819 16.3747 13.3958C16.3747 12.9097 16.1977 12.4894 15.8438 12.135C15.4894 11.7811 15.0691 11.6042 14.583 11.6042C14.0969 11.6042 13.6769 11.7811 13.323 12.135C12.9686 12.4894 12.7913 12.9097 12.7913 13.3958C12.7913 13.8819 12.9686 14.3019 13.323 14.6558C13.6769 15.0103 14.0969 15.1875 14.583 15.1875Z" fill="#131316"/>
</g>
</g>
</svg>
