<svg width="21" height="20" viewBox="0 0 21 20" fill="none" xmlns="http://www.w3.org/2000/svg">
<g id="widgets">
<mask id="mask0_4273_6984" style="mask-type:alpha" maskUnits="userSpaceOnUse" x="0" y="0" width="21" height="20">
<rect id="Bounding box" x="0.5" width="20" height="20" fill="#D9D9D9"/>
</mask>
<g mask="url(#mask0_4273_6984)">
<path id="widgets_2" d="M13.7032 9.87324L10.6424 6.81237C10.5644 6.73438 10.5094 6.65176 10.4773 6.56451C10.4453 6.47726 10.4292 6.38378 10.4292 6.28408C10.4292 6.18435 10.4453 6.09122 10.4773 6.00468C10.5094 5.91815 10.5644 5.83589 10.6424 5.75789L13.7032 2.69703C13.7812 2.61905 13.8639 2.56403 13.9511 2.53197C14.0384 2.49992 14.1318 2.48389 14.2316 2.48389C14.3313 2.48389 14.4244 2.49992 14.5109 2.53197C14.5975 2.56403 14.6797 2.61905 14.7577 2.69703L17.8186 5.75789C17.8966 5.83589 17.9516 5.91851 17.9836 6.00576C18.0157 6.09301 18.0317 6.18649 18.0317 6.2862C18.0317 6.38592 18.0157 6.47905 17.9836 6.56557C17.9516 6.65212 17.8966 6.73438 17.8186 6.81237L14.7577 9.87324C14.6797 9.95123 14.5971 10.0062 14.5099 10.0383C14.4226 10.0703 14.3291 10.0864 14.2294 10.0864C14.1297 10.0864 14.0366 10.0703 13.95 10.0383C13.8635 10.0062 13.7812 9.95123 13.7032 9.87324ZM3.67285 8.25307V3.9262C3.67285 3.71278 3.74503 3.53389 3.88939 3.38953C4.03375 3.24517 4.21264 3.17299 4.42606 3.17299H8.75293C8.96634 3.17299 9.14522 3.24517 9.28958 3.38953C9.43394 3.53389 9.50612 3.71278 9.50612 3.9262V8.25307C9.50612 8.46648 9.43394 8.64536 9.28958 8.78972C9.14522 8.93408 8.96634 9.00626 8.75293 9.00626H4.42606C4.21264 9.00626 4.03375 8.93408 3.88939 8.78972C3.74503 8.64536 3.67285 8.46648 3.67285 8.25307ZM11.4933 16.0735V11.7467C11.4933 11.5333 11.5655 11.3544 11.7099 11.21C11.8542 11.0657 12.0331 10.9935 12.2465 10.9935H16.5734C16.7868 10.9935 16.9657 11.0657 17.1101 11.21C17.2544 11.3544 17.3266 11.5333 17.3266 11.7467V16.0735C17.3266 16.287 17.2544 16.4658 17.1101 16.6102C16.9657 16.7546 16.7868 16.8267 16.5734 16.8267H12.2465C12.0331 16.8267 11.8542 16.7546 11.7099 16.6102C11.5655 16.4658 11.4933 16.287 11.4933 16.0735ZM3.67285 16.0735V11.7467C3.67285 11.5333 3.74503 11.3544 3.88939 11.21C4.03375 11.0657 4.21264 10.9935 4.42606 10.9935H8.75293C8.96634 10.9935 9.14522 11.0657 9.28958 11.21C9.43394 11.3544 9.50612 11.5333 9.50612 11.7467V16.0735C9.50612 16.287 9.43394 16.4658 9.28958 16.6102C9.14522 16.7546 8.96634 16.8267 8.75293 16.8267H4.42606C4.21264 16.8267 4.03375 16.7546 3.88939 16.6102C3.74503 16.4658 3.67285 16.287 3.67285 16.0735Z" fill="white"/>
</g>
</g>
</svg>
