<svg width="20" height="20" viewBox="0 0 20 20" fill="none" xmlns="http://www.w3.org/2000/svg">
<g id="bug_report">
<mask id="mask0_4273_19266" style="mask-type:alpha" maskUnits="userSpaceOnUse" x="0" y="0" width="20" height="20">
<rect id="Bounding box" width="20" height="20" fill="#C4C4C4"/>
</mask>
<g mask="url(#mask0_4273_19266)">
<g id="bug_report_2">
<path d="M10 16.6667C9.25 16.6667 8.55889 16.4825 7.92667 16.1142C7.295 15.7464 6.78472 15.2361 6.39583 14.5833H4.0625V13.75H6.04167C5.91667 13.3472 5.85083 12.9339 5.84417 12.51C5.83694 12.0867 5.83333 11.6667 5.83333 11.25H4.0625V10.4167H5.83333C5.83333 9.98611 5.83 9.55889 5.82333 9.135C5.81611 8.71167 5.88889 8.30556 6.04167 7.91667H4.0625V7.08333H6.39583C6.60417 6.72222 6.86111 6.39917 7.16667 6.11417C7.47222 5.82972 7.8125 5.59722 8.1875 5.41667L6.70833 3.91667L7.25 3.375L9.02083 5.125C9.34028 5.02778 9.66333 4.97917 9.99 4.97917C10.3161 4.97917 10.6458 5.02778 10.9792 5.125L12.7708 3.375L13.3333 3.91667L11.8333 5.41667C12.2083 5.59722 12.5453 5.82972 12.8442 6.11417C13.1425 6.39917 13.3958 6.72222 13.6042 7.08333H15.9375V7.91667H13.9583C14.1111 8.30556 14.1842 8.71167 14.1775 9.135C14.1703 9.55889 14.1667 9.98611 14.1667 10.4167H15.9375V11.25H14.1667C14.1667 11.6667 14.1633 12.0867 14.1567 12.51C14.1494 12.9339 14.0833 13.3472 13.9583 13.75H15.9375V14.5833H13.6042C13.2153 15.2361 12.705 15.7464 12.0733 16.1142C11.4411 16.4825 10.75 16.6667 10 16.6667ZM10 15.8333C10.9167 15.8333 11.7014 15.5069 12.3542 14.8542C13.0069 14.2014 13.3333 13.4167 13.3333 12.5V9.16667C13.3333 8.25 13.0069 7.46528 12.3542 6.8125C11.7014 6.15972 10.9167 5.83333 10 5.83333C9.08333 5.83333 8.29861 6.15972 7.64583 6.8125C6.99306 7.46528 6.66667 8.25 6.66667 9.16667V12.5C6.66667 13.4167 6.99306 14.2014 7.64583 14.8542C8.29861 15.5069 9.08333 15.8333 10 15.8333ZM8.58333 12.9167H11.4167V12.0833H8.58333V12.9167ZM8.58333 9.58333H11.4167V8.75H8.58333V9.58333Z" fill="#131316"/>
</g>
</g>
</g>
</svg>
