<svg width="21" height="20" viewBox="0 0 21 20" fill="none" xmlns="http://www.w3.org/2000/svg">
<g id="expand_more">
<mask id="mask0_4273_6991" style="mask-type:alpha" maskUnits="userSpaceOnUse" x="0" y="0" width="21" height="20">
<rect id="Bounding box" x="0.5" width="20" height="20" fill="#C4C4C4"/>
</mask>
<g mask="url(#mask0_4273_6991)">
<path id="expand_more_2" d="M10.4997 13.0211C10.3791 13.0211 10.267 13.0019 10.1631 12.9634C10.0593 12.925 9.96057 12.8589 9.86699 12.7653L5.37276 8.27112C5.23429 8.13267 5.16346 7.95864 5.16026 7.74902C5.15704 7.53941 5.22788 7.36217 5.37276 7.2173C5.51763 7.07243 5.69326 7 5.89966 7C6.10606 7 6.28169 7.07243 6.42656 7.2173L10.4997 11.2904L14.5728 7.2173C14.7112 7.07885 14.8852 7.00802 15.0949 7.0048C15.3045 7.0016 15.4817 7.07243 15.6266 7.2173C15.7714 7.36217 15.8439 7.53781 15.8439 7.74422C15.8439 7.95062 15.7714 8.12626 15.6266 8.27112L11.1323 12.7653C11.0388 12.8589 10.94 12.925 10.8362 12.9634C10.7324 13.0019 10.6202 13.0211 10.4997 13.0211Z" fill="white"/>
</g>
</g>
</svg>
