<svg width="20" height="20" viewBox="0 0 20 20" fill="none" xmlns="http://www.w3.org/2000/svg">
<g id="receipt_long">
<mask id="mask0_4273_19248" style="mask-type:alpha" maskUnits="userSpaceOnUse" x="0" y="0" width="20" height="20">
<rect id="Bounding box" width="20" height="20" fill="#D9D9D9"/>
</mask>
<g mask="url(#mask0_4273_19248)">
<path id="receipt_long_2" d="M4.99967 17.5002C4.52745 17.5002 4.13162 17.3404 3.81217 17.021C3.49273 16.7016 3.33301 16.3057 3.33301 15.8335V14.8335C3.33301 14.6529 3.39912 14.4968 3.53134 14.3652C3.66301 14.2329 3.81912 14.1668 3.99967 14.1668H5.83301V3.396C5.83301 3.24322 5.89551 3.13905 6.02051 3.0835C6.14551 3.02794 6.26356 3.05572 6.37467 3.16683L6.89551 3.68766L7.72884 2.87516C7.81217 2.80572 7.89912 2.771 7.98967 2.771C8.07967 2.771 8.1594 2.80572 8.22884 2.87516L9.06217 3.68766L9.91634 2.87516C9.98579 2.80572 10.0658 2.771 10.1563 2.771C10.2463 2.771 10.3261 2.80572 10.3955 2.87516L11.2497 3.68766L12.1038 2.87516C12.1733 2.80572 12.253 2.771 12.343 2.771C12.4336 2.771 12.5136 2.80572 12.583 2.87516L13.4372 3.68766L14.2705 2.87516C14.34 2.80572 14.4233 2.771 14.5205 2.771C14.6177 2.771 14.7011 2.80572 14.7705 2.87516L15.6038 3.68766L16.1247 3.16683C16.2358 3.05572 16.3538 3.02794 16.4788 3.0835C16.6038 3.13905 16.6663 3.24322 16.6663 3.396V15.8335C16.6663 16.3057 16.5066 16.7016 16.1872 17.021C15.8677 17.3404 15.4719 17.5002 14.9997 17.5002H4.99967ZM14.9997 16.6668C15.2358 16.6668 15.4336 16.5868 15.593 16.4268C15.753 16.2674 15.833 16.0696 15.833 15.8335V4.16683H6.66634V14.1668H13.4997C13.6802 14.1668 13.8366 14.2329 13.9688 14.3652C14.1005 14.4968 14.1663 14.6529 14.1663 14.8335V15.8335C14.1663 16.0696 14.2463 16.2674 14.4063 16.4268C14.5658 16.5868 14.7636 16.6668 14.9997 16.6668ZM8.20801 7.0835C8.11079 7.0835 8.02051 7.04183 7.93717 6.9585C7.85384 6.87516 7.81217 6.77794 7.81217 6.66683C7.81217 6.54183 7.85384 6.441 7.93717 6.36433C8.02051 6.28822 8.11773 6.25016 8.22884 6.25016H11.8538C11.9788 6.25016 12.0797 6.29183 12.1563 6.37516C12.2325 6.4585 12.2705 6.55572 12.2705 6.66683C12.2705 6.79183 12.2325 6.89266 12.1563 6.96933C12.0797 7.04544 11.9788 7.0835 11.8538 7.0835H8.20801ZM8.20801 9.5835C8.11079 9.5835 8.02051 9.54183 7.93717 9.4585C7.85384 9.37516 7.81217 9.27794 7.81217 9.16683C7.81217 9.04183 7.85384 8.941 7.93717 8.86433C8.02051 8.78822 8.11773 8.75016 8.22884 8.75016H11.8538C11.9788 8.75016 12.0797 8.79183 12.1563 8.87516C12.2325 8.9585 12.2705 9.05572 12.2705 9.16683C12.2705 9.29183 12.2325 9.39266 12.1563 9.46933C12.0797 9.54544 11.9788 9.5835 11.8538 9.5835H8.20801ZM14.0622 7.31266C13.8955 7.31266 13.7497 7.24655 13.6247 7.11433C13.4997 6.98266 13.4372 6.8335 13.4372 6.66683C13.4372 6.50016 13.4997 6.35072 13.6247 6.2185C13.7497 6.08683 13.8955 6.021 14.0622 6.021C14.2427 6.021 14.3955 6.08683 14.5205 6.2185C14.6455 6.35072 14.708 6.50016 14.708 6.66683C14.708 6.8335 14.6455 6.98266 14.5205 7.11433C14.3955 7.24655 14.2427 7.31266 14.0622 7.31266ZM14.0622 9.81266C13.8955 9.81266 13.7497 9.74655 13.6247 9.61433C13.4997 9.48266 13.4372 9.3335 13.4372 9.16683C13.4372 9.00016 13.4997 8.85072 13.6247 8.7185C13.7497 8.58683 13.8955 8.521 14.0622 8.521C14.2427 8.521 14.3955 8.58683 14.5205 8.7185C14.6455 8.85072 14.708 9.00016 14.708 9.16683C14.708 9.3335 14.6455 9.48266 14.5205 9.61433C14.3955 9.74655 14.2427 9.81266 14.0622 9.81266ZM4.99967 16.6668H13.333V15.0002H4.16634V15.8335C4.16634 16.0696 4.24606 16.2674 4.40551 16.4268C4.56551 16.5868 4.76356 16.6668 4.99967 16.6668Z" fill="#131316"/>
</g>
</g>
</svg>
