<svg width="20" height="20" viewBox="0 0 20 20" fill="none" xmlns="http://www.w3.org/2000/svg">
<g id="redeem">
<mask id="mask0_4273_19254" style="mask-type:alpha" maskUnits="userSpaceOnUse" x="0" y="0" width="20" height="20">
<rect id="Bounding box" width="20" height="20" fill="#C4C4C4"/>
</mask>
<g mask="url(#mask0_4273_19254)">
<g id="redeem_2">
<path d="M3.33333 13.8125V15.3125C3.33333 15.4514 3.38556 15.5728 3.49 15.6767C3.59389 15.7811 3.71528 15.8333 3.85417 15.8333H16.1458C16.2847 15.8333 16.4061 15.7811 16.51 15.6767C16.6144 15.5728 16.6667 15.4514 16.6667 15.3125V13.8125H3.33333ZM3.85417 5.875H6.625C6.55556 5.75 6.49667 5.61806 6.44833 5.47917C6.39944 5.34028 6.375 5.19444 6.375 5.04167C6.375 4.56944 6.53472 4.17361 6.85417 3.85417C7.17361 3.53472 7.56944 3.375 8.04167 3.375C8.31944 3.375 8.58 3.44778 8.82333 3.59333C9.06611 3.73944 9.27778 3.92361 9.45833 4.14583L9.95833 4.83333L10.4792 4.14583C10.6597 3.90972 10.8717 3.72222 11.115 3.58333C11.3578 3.44444 11.6181 3.375 11.8958 3.375C12.3681 3.375 12.7639 3.53472 13.0833 3.85417C13.4028 4.17361 13.5625 4.56944 13.5625 5.04167C13.5625 5.19444 13.5417 5.34028 13.5 5.47917C13.4583 5.61806 13.3958 5.75 13.3125 5.875H16.1458C16.5347 5.875 16.8578 6.00333 17.115 6.26C17.3717 6.51722 17.5 6.83333 17.5 7.20833V15.3125C17.5 15.7014 17.3717 16.0244 17.115 16.2817C16.8578 16.5383 16.5347 16.6667 16.1458 16.6667H3.85417C3.46528 16.6667 3.1425 16.5383 2.88583 16.2817C2.62861 16.0244 2.5 15.7014 2.5 15.3125V7.20833C2.5 6.83333 2.62861 6.51722 2.88583 6.26C3.1425 6.00333 3.46528 5.875 3.85417 5.875ZM3.33333 12.0208H16.6667V7.20833C16.6667 7.08333 16.6144 6.96861 16.51 6.86417C16.4061 6.76028 16.2847 6.70833 16.1458 6.70833H11.2917L12.9583 8.97917L12.2917 9.45833L9.95833 6.29167L7.64583 9.45833L6.97917 8.97917L8.625 6.70833H3.85417C3.71528 6.70833 3.59389 6.76028 3.49 6.86417C3.38556 6.96861 3.33333 7.08333 3.33333 7.20833V12.0208ZM8.04167 5.875C8.27778 5.875 8.47583 5.795 8.63583 5.635C8.79528 5.47556 8.875 5.27778 8.875 5.04167C8.875 4.80556 8.79528 4.60778 8.63583 4.44833C8.47583 4.28833 8.27778 4.20833 8.04167 4.20833C7.80556 4.20833 7.60778 4.28833 7.44833 4.44833C7.28833 4.60778 7.20833 4.80556 7.20833 5.04167C7.20833 5.27778 7.28833 5.47556 7.44833 5.635C7.60778 5.795 7.80556 5.875 8.04167 5.875ZM11.8958 5.875C12.1319 5.875 12.33 5.795 12.49 5.635C12.6494 5.47556 12.7292 5.27778 12.7292 5.04167C12.7292 4.80556 12.6494 4.60778 12.49 4.44833C12.33 4.28833 12.1319 4.20833 11.8958 4.20833C11.6597 4.20833 11.4617 4.28833 11.3017 4.44833C11.1422 4.60778 11.0625 4.80556 11.0625 5.04167C11.0625 5.27778 11.1422 5.47556 11.3017 5.635C11.4617 5.795 11.6597 5.875 11.8958 5.875Z" fill="#131316"/>
</g>
</g>
</g>
</svg>
