<svg width="20" height="20" viewBox="0 0 20 20" fill="none" xmlns="http://www.w3.org/2000/svg">
<g id="logout">
<mask id="mask0_4273_19278" style="mask-type:alpha" maskUnits="userSpaceOnUse" x="0" y="0" width="20" height="20">
<rect id="Bounding box" width="20" height="20" fill="#D9D9D9"/>
</mask>
<g mask="url(#mask0_4273_19278)">
<path id="logout_2" d="M4.83333 17.5002C4.45833 17.5002 4.14222 17.3718 3.885 17.1152C3.62833 16.8579 3.5 16.5349 3.5 16.146V4.68766C3.5 4.29877 3.62833 3.976 3.885 3.71933C4.14222 3.46211 4.45833 3.3335 4.83333 3.3335H10.1875V4.16683H4.83333C4.70833 4.16683 4.59389 4.21905 4.49 4.3235C4.38556 4.42739 4.33333 4.54877 4.33333 4.68766V16.146C4.33333 16.2849 4.38556 16.4063 4.49 16.5102C4.59389 16.6146 4.70833 16.6668 4.83333 16.6668H10.1875V17.5002H4.83333ZM13.5625 13.3752L12.9792 12.771L14.8958 10.8335H7.6875V10.0002H14.8958L12.9792 8.06266L13.5625 7.4585L16.5 10.4168L13.5625 13.3752Z" fill="#131316"/>
</g>
</g>
</svg>
