<svg width="20" height="20" viewBox="0 0 20 20" fill="none" xmlns="http://www.w3.org/2000/svg">
<g id="switch_account">
<mask id="mask0_4273_19272" style="mask-type:alpha" maskUnits="userSpaceOnUse" x="0" y="0" width="20" height="20">
<rect id="Bounding box" width="20" height="20" fill="#D9D9D9"/>
</mask>
<g mask="url(#mask0_4273_19272)">
<path id="switch_account_2" d="M11.6667 9.54167C12.25 9.54167 12.7431 9.34028 13.1458 8.9375C13.5486 8.53472 13.75 8.04167 13.75 7.45833C13.75 6.88889 13.5486 6.39944 13.1458 5.99C12.7431 5.58 12.25 5.375 11.6667 5.375C11.0833 5.375 10.5903 5.58 10.1875 5.99C9.78472 6.39944 9.58333 6.88889 9.58333 7.45833C9.58333 8.04167 9.78472 8.53472 10.1875 8.9375C10.5903 9.34028 11.0833 9.54167 11.6667 9.54167ZM7.14583 13.2917C7.78472 12.5972 8.48972 12.0903 9.26083 11.7708C10.0314 11.4514 10.8333 11.2917 11.6667 11.2917C12.5 11.2917 13.3022 11.4514 14.0733 11.7708C14.8439 12.0903 15.5486 12.5972 16.1875 13.2917C16.3403 13.2917 16.4583 13.2431 16.5417 13.1458C16.625 13.0486 16.6667 12.9236 16.6667 12.7708V3.85417C16.6667 3.71528 16.6144 3.59389 16.51 3.49C16.4061 3.38556 16.2847 3.33333 16.1458 3.33333H7.1875C7.04861 3.33333 6.92722 3.38556 6.82333 3.49C6.71889 3.59389 6.66667 3.71528 6.66667 3.85417V12.7708C6.66667 12.9236 6.70833 13.0486 6.79167 13.1458C6.875 13.2431 6.99306 13.2917 7.14583 13.2917ZM7.1875 14.1667C6.79861 14.1667 6.47583 14.0383 6.21917 13.7817C5.96194 13.5244 5.83333 13.2014 5.83333 12.8125V3.85417C5.83333 3.46528 5.96194 3.14222 6.21917 2.885C6.47583 2.62833 6.79861 2.5 7.1875 2.5H16.1458C16.5347 2.5 16.8578 2.62833 17.115 2.885C17.3717 3.14222 17.5 3.46528 17.5 3.85417V12.8125C17.5 13.2014 17.3717 13.5244 17.115 13.7817C16.8578 14.0383 16.5347 14.1667 16.1458 14.1667H7.1875ZM3.85417 17.5C3.46528 17.5 3.1425 17.3717 2.88583 17.115C2.62861 16.8578 2.5 16.5347 2.5 16.1458V6.25C2.5 6.125 2.53833 6.02417 2.615 5.9475C2.69111 5.87139 2.79167 5.83333 2.91667 5.83333C3.04167 5.83333 3.14222 5.87139 3.21833 5.9475C3.295 6.02417 3.33333 6.125 3.33333 6.25V16.1458C3.33333 16.2986 3.38194 16.4236 3.47917 16.5208C3.57639 16.6181 3.70139 16.6667 3.85417 16.6667H13.75C13.875 16.6667 13.9758 16.7047 14.0525 16.7808C14.1286 16.8575 14.1667 16.9583 14.1667 17.0833C14.1667 17.2083 14.1286 17.3092 14.0525 17.3858C13.9758 17.4619 13.875 17.5 13.75 17.5H3.85417ZM11.6667 8.70833C11.3194 8.70833 11.0244 8.58667 10.7817 8.34333C10.5383 8.10056 10.4167 7.80556 10.4167 7.45833C10.4167 7.125 10.5383 6.83333 10.7817 6.58333C11.0244 6.33333 11.3194 6.20833 11.6667 6.20833C12.0139 6.20833 12.3089 6.33333 12.5517 6.58333C12.795 6.83333 12.9167 7.125 12.9167 7.45833C12.9167 7.80556 12.795 8.10056 12.5517 8.34333C12.3089 8.58667 12.0139 8.70833 11.6667 8.70833ZM8.3125 13.3333H15.0208C14.5764 12.9444 14.0694 12.6458 13.5 12.4375C12.9306 12.2292 12.3194 12.125 11.6667 12.125C11.0139 12.125 10.4028 12.2292 9.83333 12.4375C9.26389 12.6458 8.75694 12.9444 8.3125 13.3333Z" fill="#131316"/>
</g>
</g>
</svg>
